<?xml version="1.0" encoding="UTF-8" standalone="no"?>
<svg xmlns="http://www.w3.org/2000/svg" version="1.1"
    viewBox="0 0 943 830" width="943" height="830" id="swingline">
    <circle cx="319.711029" cy="634.791931" r="0.343688" fill="black" />
    <circle cx="563.909241" cy="143.949646" r="0.818213" fill="black" />
    <circle cx="381.960480" cy="62.485535" r="0.202546" fill="black" />
    <circle cx="458.903259" cy="601.612427" r="0.641190" fill="black" />
    <circle cx="626.282166" cy="466.767883" r="1.024728" fill="black" />
    <circle cx="554.905701" cy="213.059082" r="0.448176" fill="black" />
    <circle cx="645.757996" cy="586.569702" r="0.703418" fill="black" />
    <circle cx="573.309204" cy="349.589355" r="0.289598" fill="black" />
    <circle cx="487.442322" cy="581.376709" r="0.844332" fill="black" />
    <circle cx="324.048615" cy="312.530457" r="1.013895" fill="black" />
    <circle cx="322.974670" cy="329.040466" r="0.991926" fill="black" />
    <circle cx="361.884277" cy="681.739868" r="0.775119" fill="black" />
    <circle cx="382.836578" cy="79.605530" r="0.301505" fill="black" />
    <circle cx="579.296936" cy="455.864807" r="0.341180" fill="black" />
    <circle cx="671.247131" cy="220.665649" r="0.864473" fill="black" />
    <circle cx="707.981506" cy="669.836914" r="0.517959" fill="black" />
    <circle cx="516.449341" cy="106.837219" r="0.677593" fill="black" />
    <circle cx="674.756653" cy="296.094971" r="0.833577" fill="black" />
    <circle cx="323.369720" cy="240.808105" r="0.328481" fill="black" />
    <circle cx="397.614349" cy="115.088562" r="0.660033" fill="black" />
    <circle cx="411.166046" cy="268.290588" r="0.630859" fill="black" />
    <circle cx="461.403839" cy="298.751465" r="0.811448" fill="black" />
    <circle cx="684.049255" cy="313.036072" r="0.486676" fill="black" />
    <circle cx="388.028137" cy="679.541870" r="0.905006" fill="black" />
    <circle cx="727.862061" cy="494.098480" r="0.826858" fill="black" />
    <circle cx="404.486969" cy="674.878906" r="0.738506" fill="black" />
    <circle cx="647.493042" cy="454.233795" r="0.978296" fill="black" />
    <circle cx="370.835876" cy="411.351501" r="0.798966" fill="black" />
    <circle cx="388.452972" cy="196.165771" r="0.222699" fill="black" />
    <circle cx="337.453339" cy="103.004456" r="0.415633" fill="black" />
    <circle cx="323.654175" cy="466.602325" r="0.528182" fill="black" />
    <circle cx="487.358063" cy="638.928711" r="0.624405" fill="black" />
    <circle cx="364.318207" cy="601.529480" r="0.642780" fill="black" />
    <circle cx="576.366516" cy="185.494751" r="0.861530" fill="black" />
    <circle cx="432.038940" cy="585.971191" r="0.728534" fill="black" />
    <circle cx="196.608917" cy="188.668213" r="0.355549" fill="black" />
    <circle cx="761.422729" cy="757.901062" r="0.173563" fill="black" />
    <circle cx="725.696838" cy="448.624268" r="0.713068" fill="black" />
    <circle cx="669.878967" cy="432.201263" r="0.940590" fill="black" />
    <circle cx="716.068115" cy="555.667358" r="0.942500" fill="black" />
    <circle cx="650.917969" cy="609.490662" r="0.822348" fill="black" />
    <circle cx="450.063660" cy="730.524658" r="0.623368" fill="black" />
    <circle cx="728.065857" cy="543.682861" r="0.780055" fill="black" />
    <circle cx="372.681335" cy="113.695251" r="0.619314" fill="black" />
    <circle cx="673.861572" cy="255.870667" r="0.796896" fill="black" />
    <circle cx="925.039734" cy="791.355896" r="0.309837" fill="black" />
    <circle cx="319.149323" cy="210.198364" r="0.315322" fill="black" />
    <circle cx="627.920166" cy="194.603516" r="0.746802" fill="black" />
    <circle cx="350.123138" cy="370.946747" r="0.284189" fill="black" />
    <circle cx="415.731018" cy="83.349060" r="0.396718" fill="black" />
    <circle cx="302.496490" cy="349.762024" r="0.500679" fill="black" />
    <circle cx="656.986389" cy="203.972229" r="0.705389" fill="black" />
    <circle cx="332.517761" cy="502.366852" r="0.371624" fill="black" />
    <circle cx="634.464600" cy="222.385315" r="0.915957" fill="black" />
    <circle cx="511.036926" cy="75.880798" r="0.482079" fill="black" />
    <circle cx="296.099396" cy="313.135254" r="0.776323" fill="black" />
    <circle cx="484.819977" cy="73.701477" r="0.541329" fill="black" />
    <circle cx="519.652100" cy="799.005249" r="0.122620" fill="black" />
    <circle cx="609.036865" cy="220.530273" r="0.911968" fill="black" />
    <circle cx="447.212891" cy="102.205872" r="0.683367" fill="black" />
    <circle cx="416.638397" cy="805.924133" r="0.448954" fill="black" />
    <circle cx="675.214355" cy="455.945984" r="1.043948" fill="black" />
    <circle cx="569.100830" cy="160.020874" r="0.847960" fill="black" />
    <circle cx="368.220856" cy="526.015625" r="0.670219" fill="black" />
    <circle cx="428.695618" cy="325.690094" r="0.509902" fill="black" />
    <circle cx="461.628113" cy="566.891602" r="0.632328" fill="black" />
    <circle cx="731.428223" cy="516.983154" r="0.823335" fill="black" />
    <circle cx="709.532715" cy="690.169617" r="0.191215" fill="black" />
    <circle cx="702.839294" cy="528.183289" r="0.966583" fill="black" />
    <circle cx="290.842865" cy="219.698547" r="0.327676" fill="black" />
    <circle cx="520.664856" cy="200.778076" r="0.216586" fill="black" />
    <circle cx="396.270020" cy="411.962341" r="0.642118" fill="black" />
    <circle cx="630.737488" cy="207.865967" r="0.860878" fill="black" />
    <circle cx="292.290802" cy="306.020752" r="0.557627" fill="black" />
    <circle cx="626.616455" cy="501.306396" r="0.969679" fill="black" />
    <circle cx="559.180603" cy="674.162476" r="0.626291" fill="black" />
    <circle cx="339.208557" cy="193.434448" r="0.257197" fill="black" />
    <circle cx="390.233612" cy="709.956726" r="0.821891" fill="black" />
    <circle cx="729.629395" cy="501.487213" r="0.825912" fill="black" />
    <circle cx="517.316589" cy="120.825134" r="0.661176" fill="black" />
    <circle cx="502.032013" cy="281.618591" r="0.375651" fill="black" />
    <circle cx="574.672241" cy="255.677673" r="0.603485" fill="black" />
    <circle cx="667.636292" cy="148.091553" r="0.356704" fill="black" />
    <circle cx="396.353882" cy="121.162292" r="0.693079" fill="black" />
    <circle cx="703.929871" cy="548.317932" r="0.907846" fill="black" />
    <circle cx="886.805725" cy="738.634949" r="0.217308" fill="black" />
    <circle cx="678.791260" cy="526.033630" r="1.080356" fill="black" />
    <circle cx="600.523560" cy="195.135681" r="0.856931" fill="black" />
    <circle cx="330.733948" cy="488.412048" r="0.545040" fill="black" />
    <circle cx="756.892090" cy="455.879547" r="0.367995" fill="black" />
    <circle cx="635.965271" cy="243.594299" r="0.935296" fill="black" />
    <circle cx="380.320709" cy="535.015381" r="0.538531" fill="black" />
    <circle cx="384.130585" cy="488.326019" r="0.701313" fill="black" />
    <circle cx="306.596954" cy="359.700012" r="0.414087" fill="black" />
    <circle cx="296.354706" cy="332.380463" r="0.497818" fill="black" />
    <circle cx="689.900452" cy="278.247070" r="0.662619" fill="black" />
    <circle cx="269.620270" cy="744.768921" r="0.187839" fill="black" />
    <circle cx="673.051086" cy="248.949280" r="0.850005" fill="black" />
    <circle cx="417.150116" cy="73.217346" r="0.303253" fill="black" />
    <circle cx="501.317291" cy="428.884705" r="0.308158" fill="black" />
    <circle cx="340.156006" cy="694.153320" r="0.560829" fill="black" />
    <circle cx="102.775436" cy="819.539246" r="0.249782" fill="black" />
    <circle cx="703.439575" cy="540.268127" r="0.886029" fill="black" />
    <circle cx="420.449677" cy="815.799988" r="0.501263" fill="black" />
    <circle cx="427.836334" cy="307.315674" r="0.767045" fill="black" />
    <circle cx="511.238464" cy="602.263184" r="0.823719" fill="black" />
    <circle cx="408.744110" cy="694.535950" r="0.824120" fill="black" />
    <circle cx="670.478882" cy="567.209839" r="1.016233" fill="black" />
    <circle cx="463.477509" cy="278.855347" r="0.335092" fill="black" />
    <circle cx="457.199951" cy="642.484863" r="0.609106" fill="black" />
    <circle cx="452.057129" cy="89.919800" r="0.671467" fill="black" />
    <circle cx="543.263916" cy="530.150940" r="0.634836" fill="black" />
    <circle cx="651.537415" cy="546.819458" r="1.082769" fill="black" />
    <circle cx="458.325043" cy="73.039490" r="0.605580" fill="black" />
    <circle cx="800.015686" cy="185.609192" r="0.030708" fill="black" />
    <circle cx="628.176941" cy="487.606232" r="1.051875" fill="black" />
    <circle cx="534.103638" cy="686.125854" r="0.671324" fill="black" />
    <circle cx="627.526001" cy="234.135620" r="0.938451" fill="black" />
    <circle cx="655.018982" cy="449.226898" r="0.858086" fill="black" />
    <circle cx="617.516663" cy="169.230469" r="0.743400" fill="black" />
    <circle cx="415.877045" cy="719.923218" r="0.754642" fill="black" />
    <circle cx="456.693481" cy="261.892029" r="0.421350" fill="black" />
    <circle cx="537.875000" cy="518.395264" r="0.460435" fill="black" />
    <circle cx="384.186218" cy="275.569336" r="0.353250" fill="black" />
    <circle cx="421.228699" cy="118.163818" r="0.701581" fill="black" />
    <circle cx="306.383240" cy="731.531921" r="0.449732" fill="black" />
    <circle cx="549.508057" cy="612.241150" r="0.540671" fill="black" />
    <circle cx="510.475525" cy="587.071045" r="0.863772" fill="black" />
    <circle cx="660.948914" cy="267.427673" r="0.894761" fill="black" />
    <circle cx="177.979736" cy="748.191956" r="0.189653" fill="black" />
    <circle cx="643.981934" cy="595.450684" r="0.633043" fill="black" />
    <circle cx="397.050232" cy="252.178406" r="0.246491" fill="black" />
    <circle cx="315.796539" cy="316.971558" r="1.014271" fill="black" />
    <circle cx="650.561401" cy="498.382294" r="1.157965" fill="black" />
    <circle cx="514.815247" cy="129.385010" r="0.651075" fill="black" />
    <circle cx="687.730347" cy="579.816101" r="0.639457" fill="black" />
    <circle cx="617.321045" cy="509.979370" r="0.594279" fill="black" />
    <circle cx="426.085663" cy="90.602844" r="0.516921" fill="black" />
    <circle cx="563.154541" cy="663.775757" r="0.416308" fill="black" />
    <circle cx="420.665833" cy="468.608032" r="0.648843" fill="black" />
    <circle cx="652.437439" cy="218.179260" r="0.855872" fill="black" />
    <circle cx="198.029861" cy="171.235535" r="0.426759" fill="black" />
    <circle cx="195.927200" cy="178.867065" r="0.512437" fill="black" />
    <circle cx="581.804504" cy="242.559998" r="0.743346" fill="black" />
    <circle cx="597.963562" cy="495.315125" r="0.596991" fill="black" />
    <circle cx="597.348511" cy="158.505615" r="0.602212" fill="black" />
    <circle cx="335.271973" cy="315.900635" r="0.998705" fill="black" />
    <circle cx="436.531769" cy="615.740479" r="0.600675" fill="black" />
    <circle cx="426.950226" cy="315.539124" r="0.623029" fill="black" />
    <circle cx="493.769623" cy="263.795654" r="0.270267" fill="black" />
    <circle cx="454.228790" cy="236.038208" r="0.155330" fill="black" />
    <circle cx="564.664063" cy="394.539429" r="0.328591" fill="black" />
    <circle cx="647.149353" cy="237.643921" r="0.947625" fill="black" />
    <circle cx="492.256592" cy="81.127197" r="0.590851" fill="black" />
    <circle cx="729.683655" cy="460.244720" r="0.630601" fill="black" />
    <circle cx="629.494812" cy="187.500549" r="0.816264" fill="black" />
    <circle cx="295.627106" cy="319.094696" r="0.689056" fill="black" />
    <circle cx="152.791016" cy="54.859802" r="0.040255" fill="black" />
    <circle cx="466.542480" cy="611.246704" r="0.617505" fill="black" />
    <circle cx="658.009216" cy="630.034912" r="0.549259" fill="black" />
    <circle cx="892.013550" cy="824.098083" r="0.335881" fill="black" />
    <circle cx="407.550537" cy="293.008911" r="0.632602" fill="black" />
    <circle cx="368.131744" cy="89.297241" r="0.422789" fill="black" />
    <circle cx="455.081360" cy="311.756226" r="0.806977" fill="black" />
    <circle cx="672.470093" cy="507.261780" r="1.006623" fill="black" />
    <circle cx="647.390198" cy="293.938171" r="0.827971" fill="black" />
    <circle cx="217.137726" cy="823.034424" r="0.305808" fill="black" />
    <circle cx="309.642395" cy="741.555603" r="0.396082" fill="black" />
    <circle cx="371.918427" cy="126.192810" r="0.676000" fill="black" />
    <circle cx="120.409660" cy="255.328674" r="0.026565" fill="black" />
    <circle cx="537.328003" cy="557.805908" r="0.803096" fill="black" />
    <circle cx="374.273804" cy="637.529602" r="0.913298" fill="black" />
    <circle cx="926.499756" cy="805.128113" r="0.372261" fill="black" />
    <circle cx="818.660522" cy="639.207031" r="0.277787" fill="black" />
    <circle cx="586.101746" cy="504.600891" r="0.599408" fill="black" />
    <circle cx="312.782532" cy="309.057434" r="0.929749" fill="black" />
    <circle cx="358.321686" cy="490.065338" r="1.009250" fill="black" />
    <circle cx="444.084198" cy="84.151367" r="0.566003" fill="black" />
    <circle cx="598.473999" cy="527.746643" r="0.461449" fill="black" />
    <circle cx="479.354614" cy="324.105164" r="0.357548" fill="black" />
    <circle cx="624.128174" cy="334.242004" r="0.598927" fill="black" />
    <circle cx="713.009827" cy="365.551056" r="0.625352" fill="black" />
    <circle cx="747.487671" cy="714.794983" r="0.103050" fill="black" />
    <circle cx="677.468994" cy="262.483826" r="0.823228" fill="black" />
    <circle cx="337.545258" cy="729.775879" r="0.531817" fill="black" />
    <circle cx="701.772827" cy="378.386810" r="0.730425" fill="black" />
    <circle cx="355.329315" cy="507.774811" r="0.670278" fill="black" />
    <circle cx="928.049500" cy="814.991211" r="0.447587" fill="black" />
    <circle cx="652.299133" cy="193.562561" r="0.617603" fill="black" />
    <circle cx="396.832123" cy="108.611084" r="0.592055" fill="black" />
    <circle cx="685.115601" cy="270.281982" r="0.721723" fill="black" />
    <circle cx="131.993362" cy="188.178162" r="0.363410" fill="black" />
    <circle cx="699.830566" cy="533.981750" r="0.991717" fill="black" />
    <circle cx="407.018372" cy="620.790161" r="0.544064" fill="black" />
    <circle cx="871.930359" cy="757.777710" r="0.202706" fill="black" />
    <circle cx="370.595093" cy="652.824829" r="0.930351" fill="black" />
    <circle cx="688.309387" cy="571.391663" r="0.915189" fill="black" />
    <circle cx="548.477722" cy="183.046082" r="0.459811" fill="black" />
    <circle cx="892.816528" cy="771.420593" r="0.278151" fill="black" />
    <circle cx="745.806335" cy="401.144257" r="0.687950" fill="black" />
    <circle cx="654.989502" cy="261.652283" r="0.861285" fill="black" />
    <circle cx="740.266907" cy="621.412109" r="0.109719" fill="black" />
    <circle cx="339.346191" cy="172.310791" r="0.254428" fill="black" />
    <circle cx="393.489105" cy="651.471863" r="0.751983" fill="black" />
    <circle cx="676.411133" cy="513.996094" r="1.030330" fill="black" />
    <circle cx="347.636780" cy="111.294739" r="0.467098" fill="black" />
    <circle cx="390.252289" cy="687.981812" r="0.886933" fill="black" />
    <circle cx="563.179199" cy="553.024536" r="0.696405" fill="black" />
    <circle cx="507.612152" cy="686.076782" r="0.626534" fill="black" />
    <circle cx="606.528015" cy="757.200378" r="0.063139" fill="black" />
    <circle cx="852.899231" cy="781.164856" r="0.208853" fill="black" />
    <circle cx="492.613708" cy="629.394897" r="0.653430" fill="black" />
    <circle cx="292.398376" cy="234.557922" r="0.377530" fill="black" />
    <circle cx="353.758362" cy="582.523682" r="0.913222" fill="black" />
    <circle cx="322.725647" cy="270.494995" r="0.356214" fill="black" />
    <circle cx="764.920532" cy="426.645020" r="0.290874" fill="black" />
    <circle cx="383.735199" cy="771.880920" r="0.482583" fill="black" />
    <circle cx="664.129089" cy="556.177490" r="1.061954" fill="black" />
    <circle cx="291.507477" cy="674.699951" r="0.447689" fill="black" />
    <circle cx="314.900055" cy="699.531311" r="0.511877" fill="black" />
    <circle cx="892.659790" cy="811.999023" r="0.325031" fill="black" />
    <circle cx="296.521240" cy="325.008423" r="0.602537" fill="black" />
    <circle cx="601.551086" cy="576.986328" r="0.425529" fill="black" />
    <circle cx="346.704559" cy="341.234406" r="0.508673" fill="black" />
    <circle cx="816.245300" cy="791.430054" r="0.261978" fill="black" />
    <circle cx="679.055359" cy="377.111053" r="0.641685" fill="black" />
    <circle cx="288.381714" cy="685.621155" r="0.478050" fill="black" />
    <circle cx="387.349731" cy="480.814850" r="0.634951" fill="black" />
    <circle cx="388.799866" cy="763.744995" r="0.422849" fill="black" />
    <circle cx="731.661011" cy="525.653076" r="0.824002" fill="black" />
    <circle cx="411.560120" cy="274.287109" r="0.818674" fill="black" />
    <circle cx="362.803497" cy="711.689331" r="0.401742" fill="black" />
    <circle cx="422.744354" cy="97.689819" r="0.570641" fill="black" />
    <circle cx="693.756897" cy="474.550049" r="0.933236" fill="black" />
    <circle cx="762.287292" cy="500.794128" r="0.492737" fill="black" />
    <circle cx="606.877625" cy="245.745178" r="0.855528" fill="black" />
    <circle cx="342.548004" cy="421.462677" r="0.645835" fill="black" />
    <circle cx="490.662659" cy="494.299438" r="0.357252" fill="black" />
    <circle cx="699.217163" cy="481.925293" r="0.899207" fill="black" />
    <circle cx="485.033630" cy="672.389526" r="0.496402" fill="black" />
    <circle cx="326.461548" cy="337.116394" r="0.793191" fill="black" />
    <circle cx="371.067291" cy="665.032471" r="0.886058" fill="black" />
    <circle cx="377.739502" cy="474.152618" r="0.850075" fill="black" />
    <circle cx="559.351807" cy="134.087402" r="0.772097" fill="black" />
    <circle cx="630.090576" cy="525.330750" r="1.005295" fill="black" />
    <circle cx="636.378540" cy="513.824463" r="1.048302" fill="black" />
    <circle cx="377.001678" cy="795.858032" r="0.551176" fill="black" />
    <circle cx="579.722412" cy="190.490662" r="0.896336" fill="black" />
    <circle cx="594.809326" cy="166.085876" r="0.657999" fill="black" />
    <circle cx="701.986816" cy="659.981262" r="0.667785" fill="black" />
    <circle cx="606.816040" cy="106.831604" r="0.180857" fill="black" />
    <circle cx="574.211121" cy="180.431152" r="0.875942" fill="black" />
    <circle cx="341.337128" cy="428.616608" r="0.652746" fill="black" />
    <circle cx="518.249878" cy="724.746582" r="0.630476" fill="black" />
    <circle cx="606.176697" cy="231.070496" r="0.947112" fill="black" />
    <circle cx="447.007751" cy="96.147461" r="0.641814" fill="black" />
    <circle cx="483.752533" cy="91.380615" r="0.643762" fill="black" />
    <circle cx="113.584641" cy="794.366089" r="0.219606" fill="black" />
    <circle cx="333.828339" cy="747.676208" r="0.480714" fill="black" />
    <circle cx="663.230286" cy="278.462830" r="0.935913" fill="black" />
    <circle cx="677.172607" cy="543.641968" r="1.052970" fill="black" />
    <circle cx="313.667999" cy="690.153442" r="0.514463" fill="black" />
    <circle cx="616.578613" cy="283.047119" r="0.872877" fill="black" />
    <circle cx="344.268311" cy="442.087799" r="0.691121" fill="black" />
    <circle cx="610.485657" cy="199.215149" r="0.866965" fill="black" />
    <circle cx="419.276031" cy="513.769958" r="0.531833" fill="black" />
    <circle cx="571.010925" cy="175.671997" r="0.892298" fill="black" />
    <circle cx="817.788086" cy="728.032532" r="0.097111" fill="black" />
    <circle cx="452.305908" cy="54.000549" r="0.077369" fill="black" />
    <circle cx="736.316772" cy="410.852295" r="0.517864" fill="black" />
    <circle cx="371.524597" cy="823.175354" r="0.427861" fill="black" />
    <circle cx="471.812744" cy="106.219788" r="0.651656" fill="black" />
    <circle cx="497.362427" cy="110.085632" r="0.682181" fill="black" />
    <circle cx="687.913635" cy="403.985840" r="0.787689" fill="black" />
    <circle cx="469.703583" cy="86.455383" r="0.634312" fill="black" />
    <circle cx="423.883423" cy="566.870789" r="0.459585" fill="black" />
    <circle cx="651.348328" cy="534.193176" r="1.136210" fill="black" />
    <circle cx="595.019714" cy="173.440857" r="0.717727" fill="black" />
    <circle cx="662.237732" cy="580.978943" r="1.031171" fill="black" />
    <circle cx="369.360748" cy="642.665100" r="0.930461" fill="black" />
    <circle cx="139.008255" cy="824.042419" r="0.352187" fill="black" />
    <circle cx="539.163269" cy="539.445190" r="0.709371" fill="black" />
    <circle cx="608.885132" cy="260.986023" r="0.826319" fill="black" />
    <circle cx="410.138763" cy="681.814453" r="0.731596" fill="black" />
    <circle cx="604.512695" cy="473.352570" r="0.665429" fill="black" />
    <circle cx="490.003906" cy="65.124634" r="0.413202" fill="black" />
    <circle cx="890.074341" cy="799.096558" r="0.310170" fill="black" />
    <circle cx="669.498230" cy="415.629150" r="0.824241" fill="black" />
    <circle cx="715.376160" cy="357.125885" r="0.565500" fill="black" />
    <circle cx="522.343750" cy="89.477051" r="0.499327" fill="black" />
    <circle cx="718.406433" cy="471.223267" r="0.663177" fill="black" />
    <circle cx="682.491638" cy="188.178894" r="0.484297" fill="black" />
    <circle cx="321.629303" cy="333.037994" r="0.915303" fill="black" />
    <circle cx="629.066101" cy="564.864441" r="0.835990" fill="black" />
    <circle cx="776.928345" cy="403.078217" r="0.326879" fill="black" />
    <circle cx="547.934814" cy="118.723755" r="0.624114" fill="black" />
    <circle cx="925.266724" cy="821.882263" r="0.466345" fill="black" />
    <circle cx="661.179688" cy="403.612457" r="0.568486" fill="black" />
    <circle cx="678.739441" cy="339.448700" r="0.452984" fill="black" />
    <circle cx="431.836792" cy="276.518555" r="0.643637" fill="black" />
    <circle cx="248.581711" cy="172.627563" r="0.460538" fill="black" />
    <circle cx="460.348267" cy="659.084900" r="0.525141" fill="black" />
    <circle cx="699.437561" cy="442.663483" r="0.704222" fill="black" />
    <circle cx="378.924133" cy="406.035736" r="0.656911" fill="black" />
    <circle cx="675.901917" cy="438.910370" r="1.013557" fill="black" />
    <circle cx="343.607819" cy="720.536804" r="0.564803" fill="black" />
    <circle cx="398.635315" cy="93.016296" r="0.373243" fill="black" />
    <circle cx="595.837402" cy="544.621765" r="0.458580" fill="black" />
    <circle cx="784.630127" cy="630.701111" r="0.444497" fill="black" />
    <circle cx="627.060425" cy="130.396729" r="0.151283" fill="black" />
    <circle cx="652.140930" cy="464.710297" r="1.100666" fill="black" />
    <circle cx="567.314148" cy="154.541321" r="0.827223" fill="black" />
    <circle cx="564.048340" cy="295.592285" r="0.248459" fill="black" />
    <circle cx="674.054993" cy="531.442017" r="1.055541" fill="black" />
    <circle cx="355.365356" cy="791.447266" r="0.463212" fill="black" />
    <circle cx="372.589355" cy="119.763916" r="0.666058" fill="black" />
    <circle cx="631.638550" cy="263.719360" r="0.829815" fill="black" />
    <circle cx="348.321136" cy="668.546387" r="0.678213" fill="black" />
    <circle cx="628.463806" cy="532.998962" r="0.929085" fill="black" />
    <circle cx="681.976563" cy="613.751953" r="0.477744" fill="black" />
    <circle cx="340.541595" cy="605.587402" r="0.714606" fill="black" />
    <circle cx="537.737366" cy="593.357666" r="0.843017" fill="black" />
    <circle cx="722.164734" cy="508.997528" r="0.855901" fill="black" />
    <circle cx="585.712769" cy="227.009949" r="0.840490" fill="black" />
    <circle cx="380.050446" cy="295.383667" r="0.348038" fill="black" />
    <circle cx="566.211487" cy="148.885132" r="0.788901" fill="black" />
    <circle cx="625.882019" cy="248.691467" r="0.849441" fill="black" />
    <circle cx="367.992035" cy="98.213928" r="0.449705" fill="black" />
    <circle cx="395.069366" cy="826.760437" r="0.563824" fill="black" />
    <circle cx="510.597198" cy="677.616760" r="0.513289" fill="black" />
    <circle cx="522.579163" cy="617.974915" r="0.760371" fill="black" />
    <circle cx="486.102173" cy="599.701050" r="0.729400" fill="black" />
    <circle cx="634.397339" cy="619.327515" r="0.288311" fill="black" />
    <circle cx="482.450500" cy="403.073181" r="0.248440" fill="black" />
    <circle cx="303.110931" cy="401.469604" r="0.245730" fill="black" />
    <circle cx="780.105469" cy="645.356384" r="0.175858" fill="black" />
    <circle cx="662.460999" cy="273.073242" r="0.890946" fill="black" />
    <circle cx="429.673431" cy="261.063232" r="0.477545" fill="black" />
    <circle cx="221.090195" cy="162.251587" r="0.321499" fill="black" />
    <circle cx="199.451401" cy="808.432922" r="0.280490" fill="black" />
    <circle cx="594.064514" cy="317.845581" r="0.578481" fill="black" />
    <circle cx="290.968567" cy="707.701843" r="0.451675" fill="black" />
    <circle cx="680.283508" cy="385.288483" r="0.834200" fill="black" />
    <circle cx="624.001404" cy="296.140869" r="0.851878" fill="black" />
    <circle cx="447.259888" cy="685.844604" r="0.567207" fill="black" />
    <circle cx="648.580139" cy="552.897949" r="1.048773" fill="black" />
    <circle cx="529.781921" cy="484.807587" r="0.341731" fill="black" />
    <circle cx="483.025452" cy="141.650269" r="0.292138" fill="black" />
    <circle cx="582.277039" cy="247.935059" r="0.713750" fill="black" />
    <circle cx="471.608154" cy="111.941223" r="0.645857" fill="black" />
    <circle cx="733.707336" cy="127.367615" r="0.239049" fill="black" />
    <circle cx="569.670532" cy="165.627930" r="0.914206" fill="black" />
    <circle cx="616.006592" cy="301.832703" r="0.852141" fill="black" />
    <circle cx="444.214569" cy="742.255127" r="0.461868" fill="black" />
    <circle cx="629.697205" cy="228.109497" r="0.955760" fill="black" />
    <circle cx="595.966248" cy="307.037354" r="0.634657" fill="black" />
    <circle cx="512.326294" cy="578.805664" r="0.871524" fill="black" />
    <circle cx="368.886963" cy="512.023621" r="0.754729" fill="black" />
    <circle cx="600.005737" cy="256.785400" r="0.804859" fill="black" />
    <circle cx="236.057953" cy="22.415955" r="0.100445" fill="black" />
    <circle cx="669.548401" cy="238.588745" r="0.931686" fill="black" />
    <circle cx="112.860352" cy="757.408203" r="0.124051" fill="black" />
    <circle cx="354.621735" cy="557.141846" r="0.507120" fill="black" />
    <circle cx="535.903015" cy="601.453125" r="0.802069" fill="black" />
    <circle cx="652.588257" cy="528.473145" r="1.143028" fill="black" />
    <circle cx="449.242279" cy="188.701111" r="0.128012" fill="black" />
    <circle cx="585.006226" cy="221.538635" r="0.803287" fill="black" />
    <circle cx="339.199921" cy="390.402344" r="0.311555" fill="black" />
    <circle cx="490.598694" cy="472.954285" r="0.331679" fill="black" />
    <circle cx="342.415649" cy="320.394562" r="0.848310" fill="black" />
    <circle cx="382.306244" cy="579.073608" r="0.621765" fill="black" />
    <circle cx="767.963867" cy="373.541748" r="0.565853" fill="black" />
    <circle cx="616.471375" cy="452.045502" r="0.730151" fill="black" />
    <circle cx="675.194214" cy="486.557831" r="1.029574" fill="black" />
    <circle cx="355.155945" cy="494.423370" r="0.861687" fill="black" />
    <circle cx="878.954895" cy="600.230652" r="0.058454" fill="black" />
    <circle cx="432.211853" cy="634.740051" r="0.619752" fill="black" />
    <circle cx="609.531860" cy="225.359131" r="0.943122" fill="black" />
    <circle cx="315.173065" cy="282.134949" r="0.599827" fill="black" />
    <circle cx="315.315369" cy="716.849731" r="0.556031" fill="black" />
    <circle cx="368.560120" cy="426.532990" r="0.610139" fill="black" />
    <circle cx="731.196716" cy="564.114014" r="0.703701" fill="black" />
    <circle cx="440.666199" cy="140.279968" r="0.270268" fill="black" />
    <circle cx="647.803162" cy="327.556213" r="0.552312" fill="black" />
    <circle cx="348.381592" cy="633.984985" r="0.809483" fill="black" />
    <circle cx="342.035065" cy="435.408142" r="0.669879" fill="black" />
    <circle cx="644.212097" cy="286.830078" r="0.897460" fill="black" />
    <circle cx="375.862183" cy="138.660767" r="0.555657" fill="black" />
    <circle cx="679.770142" cy="424.043152" r="0.932456" fill="black" />
    <circle cx="248.335876" cy="766.425964" r="0.247542" fill="black" />
    <circle cx="589.360107" cy="129.514954" r="0.348721" fill="black" />
    <circle cx="412.477417" cy="300.960266" r="0.646961" fill="black" />
    <circle cx="637.725464" cy="274.471802" r="0.852992" fill="black" />
    <circle cx="621.844482" cy="308.689453" r="0.791700" fill="black" />
    <circle cx="423.515350" cy="727.613586" r="0.725459" fill="black" />
    <circle cx="544.544861" cy="642.753296" r="0.375417" fill="black" />
    <circle cx="326.399689" cy="477.171051" r="0.442856" fill="black" />
    <circle cx="535.136536" cy="465.998108" r="0.327826" fill="black" />
    <circle cx="619.149231" cy="152.640442" r="0.579959" fill="black" />
    <circle cx="712.861267" cy="303.621826" r="0.369927" fill="black" />
    <circle cx="730.582092" cy="821.359497" r="0.229521" fill="black" />
    <circle cx="169.534683" cy="181.150085" r="0.455532" fill="black" />
    <circle cx="451.670624" cy="468.317261" r="0.409924" fill="black" />
    <circle cx="446.252563" cy="112.019836" r="0.660840" fill="black" />
    <circle cx="635.234802" cy="258.337280" r="0.824911" fill="black" />
    <circle cx="134.718948" cy="811.413391" r="0.311518" fill="black" />
    <circle cx="249.681854" cy="164.803467" r="0.359864" fill="black" />
    <circle cx="256.035126" cy="821.577148" r="0.255137" fill="black" />
    <circle cx="667.883728" cy="469.254730" r="1.048494" fill="black" />
    <circle cx="678.456421" cy="520.008545" r="1.073329" fill="black" />
    <circle cx="563.788696" cy="544.572632" r="0.703164" fill="black" />
    <circle cx="651.508057" cy="491.419525" r="1.138214" fill="black" />
    <circle cx="669.565308" cy="444.521606" r="1.057793" fill="black" />
    <circle cx="163.442032" cy="799.609985" r="0.205221" fill="black" />
    <circle cx="607.471069" cy="365.511261" r="0.450000" fill="black" />
    <circle cx="541.717773" cy="269.162231" r="0.237240" fill="black" />
    <circle cx="373.194061" cy="669.721924" r="0.877919" fill="black" />
    <circle cx="605.712463" cy="341.205688" r="0.617104" fill="black" />
    <circle cx="675.050476" cy="462.360901" r="1.058712" fill="black" />
    <circle cx="362.689453" cy="758.673828" r="0.524336" fill="black" />
    <circle cx="646.556091" cy="155.367859" r="0.475686" fill="black" />
    <circle cx="495.256256" cy="610.139282" r="0.711252" fill="black" />
    <circle cx="521.292175" cy="571.328247" r="0.851092" fill="black" />
    <circle cx="486.877716" cy="693.615723" r="0.605044" fill="black" />
    <circle cx="686.326233" cy="632.837158" r="0.743799" fill="black" />
    <circle cx="530.037109" cy="736.767944" r="0.217675" fill="black" />
    <circle cx="412.632202" cy="701.122925" r="0.795947" fill="black" />
    <circle cx="682.659058" cy="302.409851" r="0.612616" fill="black" />
    <circle cx="482.893097" cy="552.288818" r="0.519971" fill="black" />
    <circle cx="341.835632" cy="413.529449" r="0.589488" fill="black" />
    <circle cx="561.296814" cy="509.357483" r="0.547587" fill="black" />
    <circle cx="460.993286" cy="718.980164" r="0.397337" fill="black" />
    <circle cx="544.430725" cy="151.098022" r="0.728656" fill="black" />
    <circle cx="343.708527" cy="654.182434" r="0.664199" fill="black" />
    <circle cx="566.240601" cy="493.371796" r="0.446573" fill="black" />
    <circle cx="587.127808" cy="612.621460" r="0.399744" fill="black" />
    <circle cx="603.730286" cy="236.051880" r="0.922026" fill="black" />
    <circle cx="602.334473" cy="380.906372" r="0.424607" fill="black" />
    <circle cx="359.523254" cy="802.688782" r="0.432355" fill="black" />
    <circle cx="891.932251" cy="785.613281" r="0.302422" fill="black" />
    <circle cx="446.090088" cy="553.130249" r="0.346662" fill="black" />
    <circle cx="345.137146" cy="661.520203" r="0.667716" fill="black" />
    <circle cx="513.088257" cy="137.057068" r="0.549670" fill="black" />
    <circle cx="758.391724" cy="486.255585" r="0.410018" fill="black" />
    <circle cx="541.436707" cy="567.500366" r="0.840580" fill="black" />
    <circle cx="439.740997" cy="705.481628" r="0.553427" fill="black" />
    <circle cx="494.042053" cy="571.129211" r="0.809448" fill="black" />
    <circle cx="628.141296" cy="494.536804" r="1.052437" fill="black" />
    <circle cx="511.387207" cy="530.730408" r="0.447149" fill="black" />
    <circle cx="673.953369" cy="586.993164" r="0.833465" fill="black" />
    <circle cx="334.241669" cy="777.503418" r="0.337008" fill="black" />
    <circle cx="378.950958" cy="455.806641" r="0.372999" fill="black" />
    <circle cx="505.972931" cy="312.967590" r="0.339378" fill="black" />
    <circle cx="653.045776" cy="540.537354" r="1.123346" fill="black" />
    <circle cx="458.193115" cy="592.493347" r="0.717728" fill="black" />
    <circle cx="514.905518" cy="562.761475" r="0.801768" fill="black" />
    <circle cx="355.837189" cy="744.040955" r="0.509938" fill="black" />
    <circle cx="413.926788" cy="706.990112" r="0.773124" fill="black" />
    <circle cx="252.135574" cy="181.040894" r="0.307198" fill="black" />
    <circle cx="251.545319" cy="141.468384" r="0.085978" fill="black" />
    <circle cx="649.350952" cy="438.660919" r="0.646516" fill="black" />
    <circle cx="305.512756" cy="376.657074" r="0.254446" fill="black" />
    <circle cx="433.156464" cy="675.461182" r="0.549976" fill="black" />
    <circle cx="235.881195" cy="195.251099" r="0.149094" fill="black" />
    <circle cx="346.581055" cy="404.145782" r="0.522727" fill="black" />
    <circle cx="295.267487" cy="820.192871" r="0.251778" fill="black" />
    <circle cx="139.596664" cy="178.297180" r="0.307154" fill="black" />
    <circle cx="627.031738" cy="481.076874" r="1.033548" fill="black" />
    <circle cx="546.673279" cy="172.908691" r="0.517412" fill="black" />
    <circle cx="385.127563" cy="497.391205" r="0.522189" fill="black" />
    <circle cx="650.620728" cy="316.506836" r="0.524548" fill="black" />
    <circle cx="411.334839" cy="372.780670" r="0.215559" fill="black" />
    <circle cx="348.317596" cy="533.795776" r="0.508561" fill="black" />
    <circle cx="429.525269" cy="283.567688" r="0.602455" fill="black" />
    <circle cx="361.422089" cy="594.186462" r="0.774504" fill="black" />
    <circle cx="673.866821" cy="537.084045" r="1.044506" fill="black" />
    <circle cx="233.074921" cy="73.849609" r="0.119458" fill="black" />
    <circle cx="668.685486" cy="283.465698" r="0.922817" fill="black" />
    <circle cx="651.791382" cy="253.356934" r="0.827912" fill="black" />
    <circle cx="489.977051" cy="98.359802" r="0.699964" fill="black" />
    <circle cx="232.617996" cy="805.870117" r="0.274503" fill="black" />
    <circle cx="237.479324" cy="786.969666" r="0.257704" fill="black" />
    <circle cx="468.437988" cy="100.049683" r="0.677619" fill="black" />
    <circle cx="436.985962" cy="128.611633" r="0.651196" fill="black" />
    <circle cx="702.335144" cy="371.974274" r="0.737087" fill="black" />
    <circle cx="597.459534" cy="635.669434" r="0.259137" fill="black" />
    <circle cx="538.490417" cy="694.382874" r="0.625098" fill="black" />
    <circle cx="695.206421" cy="222.553955" r="0.767318" fill="black" />
    <circle cx="412.042389" cy="578.007019" r="0.656274" fill="black" />
    <circle cx="399.235870" cy="313.008728" r="0.346283" fill="black" />
    <circle cx="428.518250" cy="595.926147" r="0.639878" fill="black" />
    <circle cx="370.683197" cy="587.793457" r="0.674982" fill="black" />
    <circle cx="290.644257" cy="297.975281" r="0.538643" fill="black" />
    <circle cx="692.431946" cy="639.803955" r="0.782252" fill="black" />
    <circle cx="225.688477" cy="745.614685" r="0.239399" fill="black" />
    <circle cx="306.490997" cy="160.454895" r="0.326216" fill="black" />
    <circle cx="402.389191" cy="731.796936" r="0.645033" fill="black" />
    <circle cx="488.303406" cy="301.412170" r="0.722947" fill="black" />
    <circle cx="704.559570" cy="522.015991" r="0.908215" fill="black" />
    <circle cx="670.989319" cy="213.625977" r="0.773914" fill="black" />
    <circle cx="582.284729" cy="216.623718" r="0.799152" fill="black" />
    <circle cx="420.699158" cy="447.539246" r="0.261383" fill="black" />
    <circle cx="337.858337" cy="713.205139" r="0.542078" fill="black" />
    <circle cx="420.823761" cy="654.932373" r="0.559918" fill="black" />
    <circle cx="926.170288" cy="774.081848" r="0.282518" fill="black" />
    <circle cx="403.721558" cy="796.339355" r="0.460637" fill="black" />
    <circle cx="392.254578" cy="787.952942" r="0.481306" fill="black" />
    <circle cx="470.311920" cy="118.843201" r="0.641286" fill="black" />
    <circle cx="442.518921" cy="789.103638" r="0.167557" fill="black" />
    <circle cx="564.732788" cy="572.986938" r="0.616129" fill="black" />
    <circle cx="307.504944" cy="288.811951" r="0.928646" fill="black" />
    <circle cx="631.127136" cy="213.603760" r="0.859881" fill="black" />
    <circle cx="358.348389" cy="145.712952" r="0.437651" fill="black" />
    <circle cx="671.090271" cy="593.622925" r="0.649250" fill="black" />
    <circle cx="345.917694" cy="675.590271" r="0.640601" fill="black" />
    <circle cx="290.787506" cy="247.499878" r="0.374772" fill="black" />
    <circle cx="695.165527" cy="214.864075" r="0.606358" fill="black" />
    <circle cx="677.248352" cy="560.796021" r="1.034695" fill="black" />
    <circle cx="836.675659" cy="629.097961" r="0.504291" fill="black" />
    <circle cx="388.034821" cy="753.574707" r="0.354891" fill="black" />
    <circle cx="539.430481" cy="577.940247" r="0.862786" fill="black" />
    <circle cx="396.168427" cy="523.890991" r="0.632012" fill="black" />
    <circle cx="393.842133" cy="514.996094" r="0.752604" fill="black" />
    <circle cx="738.507507" cy="648.195618" r="0.208056" fill="black" />
    <circle cx="320.845520" cy="321.153687" r="0.958425" fill="black" />
    <circle cx="535.567200" cy="585.890320" r="0.874454" fill="black" />
    <circle cx="692.851440" cy="390.719696" r="0.830757" fill="black" />
    <circle cx="485.101898" cy="590.468384" r="0.791549" fill="black" />
    <circle cx="467.990326" cy="370.115021" r="0.214210" fill="black" />
    <circle cx="220.699875" cy="182.112305" r="0.493650" fill="black" />
    <circle cx="400.649261" cy="609.654541" r="0.571472" fill="black" />
    <circle cx="559.935730" cy="683.891357" r="0.539188" fill="black" />
    <circle cx="583.684937" cy="212.046753" r="0.849284" fill="black" />
    <circle cx="437.748413" cy="713.794434" r="0.686807" fill="black" />
    <circle cx="709.660461" cy="676.324097" r="0.471734" fill="black" />
    <circle cx="343.361694" cy="293.477356" r="0.500820" fill="black" />
    <circle cx="806.093750" cy="769.724854" r="0.214585" fill="black" />
    <circle cx="680.828186" cy="449.902893" r="0.966859" fill="black" />
    <circle cx="362.767731" cy="695.872620" r="0.744206" fill="black" />
    <circle cx="624.822327" cy="253.738464" r="0.791636" fill="black" />
    <circle cx="370.308350" cy="417.610352" r="0.637662" fill="black" />
    <circle cx="317.407928" cy="679.419861" r="0.500588" fill="black" />
    <circle cx="382.137177" cy="392.400421" r="0.268646" fill="black" />
    <circle cx="291.436523" cy="275.979980" r="0.408225" fill="black" />
    <circle cx="537.879333" cy="677.895264" r="0.638059" fill="black" />
    <circle cx="469.020203" cy="303.951599" r="1.006084" fill="black" />
    <circle cx="640.583252" cy="281.087341" r="0.868044" fill="black" />
    <circle cx="414.450287" cy="475.079498" r="0.904013" fill="black" />
    <circle cx="307.691772" cy="424.316803" r="0.255450" fill="black" />
    <circle cx="522.159485" cy="609.857239" r="0.819512" fill="black" />
    <circle cx="394.060394" cy="8.106140" r="0.188096" fill="black" />
    <circle cx="434.623413" cy="269.625793" r="0.710285" fill="black" />
    <circle cx="427.757813" cy="664.512024" r="0.575764" fill="black" />
    <circle cx="627.956848" cy="518.919312" r="0.999276" fill="black" />
    <circle cx="640.484985" cy="576.972229" r="0.735107" fill="black" />
    <circle cx="340.709442" cy="597.778442" r="0.675853" fill="black" />
    <circle cx="371.527527" cy="620.079163" r="0.691987" fill="black" />
    <circle cx="520.740906" cy="113.677490" r="0.648150" fill="black" />
    <circle cx="695.287354" cy="229.630371" r="0.716881" fill="black" />
    <circle cx="643.154602" cy="603.573120" r="0.656302" fill="black" />
    <circle cx="446.581116" cy="107.535767" r="0.670801" fill="black" />
    <circle cx="430.866791" cy="401.652496" r="0.270590" fill="black" />
    <circle cx="565.158630" cy="372.369263" r="0.296880" fill="black" />
    <circle cx="427.488922" cy="643.729187" r="0.610445" fill="black" />
    <circle cx="736.524048" cy="374.437866" r="0.440354" fill="black" />
    <circle cx="331.841095" cy="307.370667" r="0.798842" fill="black" />
    <circle cx="628.770264" cy="217.962708" r="0.891236" fill="black" />
    <circle cx="384.542969" cy="567.843994" r="0.488184" fill="black" />
    <circle cx="651.592041" cy="561.929688" r="1.024575" fill="black" />
    <circle cx="591.580505" cy="139.845398" r="0.416605" fill="black" />
    <circle cx="357.445221" cy="486.015808" r="0.990132" fill="black" />
    <circle cx="386.270569" cy="779.970764" r="0.485025" fill="black" />
    <circle cx="345.575165" cy="448.810364" r="0.636739" fill="black" />
    <circle cx="319.194000" cy="724.516052" r="0.537131" fill="black" />
    <circle cx="364.744202" cy="702.284363" r="0.672721" fill="black" />
    <circle cx="615.076111" cy="277.470215" r="0.896941" fill="black" />
    <circle cx="542.457031" cy="446.194305" r="0.336547" fill="black" />
    <circle cx="293.905853" cy="769.374573" r="0.218938" fill="black" />
    <circle cx="573.255554" cy="101.669006" r="0.278272" fill="black" />
    <circle cx="426.324432" cy="760.095337" r="0.286553" fill="black" />
    <circle cx="334.641815" cy="818.695496" r="0.219889" fill="black" />
    <circle cx="201.467026" cy="790.047546" r="0.254423" fill="black" />
    <circle cx="387.275208" cy="696.123657" r="0.860816" fill="black" />
    <circle cx="396.234070" cy="811.490173" r="0.553358" fill="black" />
    <circle cx="170.169632" cy="172.233459" r="0.345717" fill="black" />
    <circle cx="402.250702" cy="423.092224" r="0.362177" fill="black" />
    <circle cx="554.767151" cy="626.508972" r="0.441598" fill="black" />
    <circle cx="445.744873" cy="116.360901" r="0.660094" fill="black" />
    <circle cx="519.340942" cy="296.193359" r="0.316243" fill="black" />
    <circle cx="314.802765" cy="654.352783" r="0.420064" fill="black" />
    <circle cx="590.491394" cy="279.964722" r="0.712632" fill="black" />
    <circle cx="621.316101" cy="289.760559" r="0.845887" fill="black" />
    <circle cx="371.044403" cy="661.043457" r="0.909686" fill="black" />
    <circle cx="323.504120" cy="345.121094" r="0.546563" fill="black" />
    <circle cx="610.924805" cy="272.627380" r="0.913273" fill="black" />
    <circle cx="347.069794" cy="639.467285" r="0.787331" fill="black" />
    <circle cx="396.180359" cy="126.360535" r="0.723177" fill="black" />
    <circle cx="668.758301" cy="638.197388" r="0.563014" fill="black" />
    <circle cx="570.133850" cy="699.154663" r="0.238714" fill="black" />
    <circle cx="704.059509" cy="515.958984" r="0.917352" fill="black" />
    <circle cx="314.211029" cy="441.722412" r="0.428571" fill="black" />
    <circle cx="719.271912" cy="397.621033" r="0.418649" fill="black" />
    <circle cx="491.190552" cy="126.376770" r="0.643462" fill="black" />
    <circle cx="322.884186" cy="225.721313" r="0.320941" fill="black" />
    <circle cx="343.698761" cy="621.057434" r="0.738139" fill="black" />
    <circle cx="669.121155" cy="474.640656" r="1.047981" fill="black" />
    <circle cx="324.060944" cy="324.843964" r="0.963378" fill="black" />
    <circle cx="609.542358" cy="351.837219" r="0.521159" fill="black" />
    <circle cx="652.371887" cy="520.042725" r="1.159911" fill="black" />
    <circle cx="523.063904" cy="385.603912" r="0.275253" fill="black" />
    <circle cx="467.294891" cy="77.090393" r="0.647282" fill="black" />
    <circle cx="756.507324" cy="358.715912" r="0.332187" fill="black" />
    <circle cx="731.930054" cy="787.853943" r="0.108595" fill="black" />
    <circle cx="683.515198" cy="365.751251" r="0.499891" fill="black" />
    <circle cx="351.307648" cy="568.140747" r="0.614154" fill="black" />
    <circle cx="618.459717" cy="175.177673" r="0.790076" fill="black" />
    <circle cx="670.564209" cy="159.646179" r="0.476584" fill="black" />
    <circle cx="511.236053" cy="553.636963" r="0.752306" fill="black" />
    <circle cx="300.267517" cy="340.887848" r="0.529270" fill="black" />
    <circle cx="370.743652" cy="105.974060" r="0.527067" fill="black" />
    <circle cx="521.592651" cy="626.476013" r="0.695246" fill="black" />
    <circle cx="373.928040" cy="631.963684" r="0.886271" fill="black" />
    <circle cx="332.756775" cy="738.073120" r="0.498054" fill="black" />
    <circle cx="381.591888" cy="673.827026" r="0.899539" fill="black" />
    <circle cx="761.859558" cy="520.176147" r="0.426599" fill="black" />
    <circle cx="392.098358" cy="507.252228" r="0.688345" fill="black" />
    <circle cx="465.956421" cy="128.378845" r="0.556879" fill="black" />
    <circle cx="626.974731" cy="457.541138" r="1.028456" fill="black" />
    <circle cx="460.105988" cy="678.190002" r="0.586068" fill="black" />
    <circle cx="401.995850" cy="588.013306" r="0.683404" fill="black" />
    <circle cx="614.218811" cy="417.746033" r="0.353441" fill="black" />
    <circle cx="383.353546" cy="691.983521" r="0.851469" fill="black" />
    <circle cx="567.528564" cy="524.468933" r="0.688637" fill="black" />
    <circle cx="488.084717" cy="562.364990" r="0.750928" fill="black" />
    <circle cx="504.599274" cy="718.122742" r="0.555852" fill="black" />
    <circle cx="344.223450" cy="332.887024" r="0.758388" fill="black" />
    <circle cx="185.136703" cy="153.234070" r="0.120563" fill="black" />
    <circle cx="317.909363" cy="454.954224" r="0.359913" fill="black" />
    <circle cx="484.036896" cy="293.584961" r="0.560241" fill="black" />
    <circle cx="566.256042" cy="201.568604" r="0.612043" fill="black" />
    <circle cx="703.004211" cy="454.191589" r="0.855832" fill="black" />
    <circle cx="351.595642" cy="280.167603" r="0.343970" fill="black" />
    <circle cx="632.974548" cy="201.608337" r="0.785919" fill="black" />
    <circle cx="547.416138" cy="164.349060" r="0.616128" fill="black" />
    <circle cx="746.125244" cy="553.267883" r="0.483340" fill="black" />
    <circle cx="361.433594" cy="751.266785" r="0.522825" fill="black" />
    <circle cx="562.217346" cy="561.914673" r="0.692673" fill="black" />
    <circle cx="650.625916" cy="484.442932" r="1.128052" fill="black" />
    <circle cx="460.740387" cy="583.703064" r="0.799169" fill="black" />
    <circle cx="697.943542" cy="650.408752" r="0.777391" fill="black" />
    <circle cx="288.414703" cy="696.570679" r="0.489393" fill="black" />
    <circle cx="375.070068" cy="647.244629" r="0.948253" fill="black" />
    <circle cx="700.086548" cy="563.700256" r="0.928945" fill="black" />
    <circle cx="352.977997" cy="471.038330" r="0.828214" fill="black" />
    <circle cx="514.121277" cy="233.272461" r="0.196936" fill="black" />
    <circle cx="318.381775" cy="667.626709" r="0.470069" fill="black" />
    <circle cx="376.173981" cy="467.552246" r="0.811676" fill="black" />
    <circle cx="598.223450" cy="296.220154" r="0.704977" fill="black" />
    <circle cx="604.788818" cy="398.365295" r="0.369464" fill="black" />
    <circle cx="382.541168" cy="171.740662" r="0.214634" fill="black" />
    <circle cx="653.357666" cy="225.550964" r="0.930459" fill="black" />
    <circle cx="674.156494" cy="178.079651" r="0.516005" fill="black" />
    <circle cx="473.703644" cy="533.784790" r="0.323673" fill="black" />
    <circle cx="579.444214" cy="117.966797" r="0.308637" fill="black" />
    <circle cx="634.378113" cy="268.494080" r="0.863681" fill="black" />
    <circle cx="345.934204" cy="326.515717" r="0.711364" fill="black" />
    <circle cx="366.613342" cy="608.517273" r="0.643826" fill="black" />
    <circle cx="604.233276" cy="240.486816" r="0.889931" fill="black" />
    <circle cx="411.169922" cy="130.327332" r="0.703603" fill="black" />
    <circle cx="288.772797" cy="291.160461" r="0.620939" fill="black" />
    <circle cx="582.017029" cy="263.994446" r="0.695773" fill="black" />
    <circle cx="431.200958" cy="289.997620" r="0.692423" fill="black" />
    <circle cx="355.962067" cy="476.658417" r="0.876039" fill="black" />
    <circle cx="554.993225" cy="192.406311" r="0.521259" fill="black" />
    <circle cx="671.973694" cy="227.782104" r="0.899578" fill="black" />
    <circle cx="699.506165" cy="503.925598" r="0.932109" fill="black" />
    <circle cx="437.977722" cy="477.261597" r="0.839737" fill="black" />
    <circle cx="660.684509" cy="660.742432" r="0.151180" fill="black" />
    <circle cx="600.942017" cy="251.598633" r="0.851478" fill="black" />
    <circle cx="538.016602" cy="124.937439" r="0.674566" fill="black" />
    <circle cx="314.816925" cy="293.013916" r="0.902043" fill="black" />
    <circle cx="697.290100" cy="510.057129" r="0.934259" fill="black" />
    <circle cx="710.923340" cy="323.680878" r="0.377718" fill="black" />
    <circle cx="416.756409" cy="744.937439" r="0.622742" fill="black" />
    <circle cx="909.972412" cy="652.471130" r="0.083047" fill="black" />
    <circle cx="467.753326" cy="94.352844" r="0.686363" fill="black" />
    <circle cx="511.910431" cy="594.545837" r="0.847932" fill="black" />
    <circle cx="743.510742" cy="476.901459" r="0.732707" fill="black" />
    <circle cx="358.848480" cy="500.544556" r="0.717534" fill="black" />
    <circle cx="311.377197" cy="753.215637" r="0.353441" fill="black" />
    <circle cx="631.275940" cy="461.973877" r="1.105994" fill="black" />
    <circle cx="510.121704" cy="543.634155" r="0.597453" fill="black" />
    <circle cx="648.520874" cy="478.560028" r="1.135057" fill="black" />
    <circle cx="668.958008" cy="289.494202" r="0.929643" fill="black" />
    <circle cx="318.314301" cy="297.439270" r="0.764297" fill="black" />
    <circle cx="359.427704" cy="765.454834" r="0.513789" fill="black" />
    <circle cx="452.816467" cy="487.317474" r="0.366583" fill="black" />
    <circle cx="571.296509" cy="475.856628" r="0.377474" fill="black" />
    <circle cx="223.115265" cy="176.080994" r="0.549870" fill="black" />
    <circle cx="292.632355" cy="720.902954" r="0.362827" fill="black" />
    <circle cx="341.248138" cy="519.212036" r="0.470716" fill="black" />
    <circle cx="583.206970" cy="515.748291" r="0.586395" fill="black" />
    <circle cx="694.476379" cy="236.057190" r="0.689276" fill="black" />
    <circle cx="292.227631" cy="200.601501" r="0.290728" fill="black" />
    <circle cx="388.318787" cy="704.576599" r="0.839613" fill="black" />
    <circle cx="343.299469" cy="588.289917" r="0.682947" fill="black" />
    <circle cx="369.761047" cy="812.478088" r="0.510611" fill="black" />
    <circle cx="357.855957" cy="214.839966" r="0.255133" fill="black" />
    <circle cx="462.065430" cy="632.892456" r="0.606993" fill="black" />
    <circle cx="628.154175" cy="557.121643" r="0.947468" fill="black" />
    <circle cx="395.011566" cy="551.294800" r="0.337998" fill="black" />
    <circle cx="456.613861" cy="510.013641" r="0.330775" fill="black" />
    <circle cx="326.077789" cy="144.453308" r="0.395735" fill="black" />
    <circle cx="342.005249" cy="92.417908" r="0.384242" fill="black" />
    <circle cx="691.466919" cy="467.806030" r="0.973206" fill="black" />
    <circle cx="602.815613" cy="186.511841" r="0.789845" fill="black" />
    <circle cx="51.140915" cy="788.164612" r="0.094616" fill="black" />
    <circle cx="353.578156" cy="78.836121" r="0.329834" fill="black" />
    <circle cx="657.342896" cy="614.794556" r="0.843745" fill="black" />
    <circle cx="693.905701" cy="645.483154" r="0.803825" fill="black" />
    <circle cx="494.966217" cy="619.925842" r="0.678761" fill="black" />
    <circle cx="927.459290" cy="622.837280" r="0.498666" fill="black" />
    <circle cx="673.954651" cy="479.953308" r="1.025753" fill="black" />
    <circle cx="646.820129" cy="505.131226" r="1.129567" fill="black" />
    <circle cx="920.370850" cy="753.708618" r="0.233545" fill="black" />
    <circle cx="534.750732" cy="703.641174" r="0.586982" fill="black" />
    <circle cx="626.582825" cy="181.018127" r="0.814117" fill="black" />
    <circle cx="651.178650" cy="510.351074" r="1.148090" fill="black" />
    <circle cx="457.556885" cy="290.024231" r="0.586018" fill="black" />
    <circle cx="460.703735" cy="693.860535" r="0.619919" fill="black" />
    <circle cx="450.769653" cy="651.242065" r="0.634908" fill="black" />
    <circle cx="731.292175" cy="423.418396" r="0.501351" fill="black" />
    <circle cx="700.223938" cy="655.443726" r="0.750262" fill="black" />
    <circle cx="435.477692" cy="625.582458" r="0.595590" fill="black" />
    <circle cx="644.627197" cy="162.826355" r="0.742190" fill="black" />
    <circle cx="607.600952" cy="267.164001" r="0.835670" fill="black" />
    <circle cx="695.196777" cy="431.528870" r="0.675205" fill="black" />
    <circle cx="464.443146" cy="450.589294" r="0.312390" fill="black" />
    <circle cx="540.754822" cy="103.467468" r="0.537478" fill="black" />
    <circle cx="339.335693" cy="685.236023" r="0.561850" fill="black" />
    <circle cx="540.265259" cy="136.378052" r="0.720207" fill="black" />
    <circle cx="433.590454" cy="343.795959" r="0.289150" fill="black" />
    <circle cx="643.574158" cy="569.927612" r="1.011381" fill="black" />
    <circle cx="727.055847" cy="534.294189" r="0.837855" fill="black" />
    <circle cx="397.533813" cy="598.550415" r="0.577635" fill="black" />
    <circle cx="385.751404" cy="341.487305" r="0.195851" fill="black" />
    <circle cx="487.160889" cy="659.819397" r="0.547107" fill="black" />
    <circle cx="402.596466" cy="285.479065" r="0.665091" fill="black" />
    <circle cx="672.314880" cy="392.926544" r="0.763246" fill="black" />
    <circle cx="341.940430" cy="613.084839" r="0.730628" fill="black" />
    <circle cx="449.757813" cy="819.453674" r="0.242102" fill="black" />
    <circle cx="699.500488" cy="497.625244" r="0.929360" fill="black" />
    <circle cx="381.392120" cy="741.043335" r="0.324306" fill="black" />
    <circle cx="452.590057" cy="425.998077" r="0.272797" fill="black" />
    <circle cx="508.065399" cy="168.564087" r="0.224223" fill="black" />
    <circle cx="489.569305" cy="709.903198" r="0.565510" fill="black" />
    <circle cx="357.344421" cy="312.510803" r="0.361182" fill="black" />
    <circle cx="715.094116" cy="343.070831" r="0.348512" fill="black" />
    <circle cx="396.382568" cy="643.569580" r="0.618715" fill="black" />
    <circle cx="600.935486" cy="594.370117" r="0.383094" fill="black" />
    <circle cx="430.792023" cy="606.055298" r="0.610162" fill="black" />
    <circle cx="557.004395" cy="226.589783" r="0.452459" fill="black" />
    <circle cx="664.552795" cy="621.078735" r="0.783430" fill="black" />
    <circle cx="639.529175" cy="344.511505" r="0.544893" fill="black" />
    <circle cx="434.622772" cy="296.002380" r="0.716489" fill="black" />
    <circle cx="559.268372" cy="139.661560" r="0.899035" fill="black" />
    <circle cx="595.331360" cy="560.969116" r="0.464446" fill="black" />
    <circle cx="398.123718" cy="669.467163" r="0.795075" fill="black" />
    <circle cx="373.945679" cy="626.013184" r="0.817604" fill="black" />
    <circle cx="746.784363" cy="384.931549" r="0.655620" fill="black" />
    <circle cx="480.744171" cy="307.735474" r="0.952417" fill="black" />
    <circle cx="649.890198" cy="247.302307" r="0.890371" fill="black" />
    <circle cx="415.197144" cy="688.533691" r="0.722292" fill="black" />
    <circle cx="605.594299" cy="191.039368" r="0.811134" fill="black" />
    <circle cx="400.387085" cy="463.742340" r="0.644675" fill="black" />
    <circle cx="542.740112" cy="428.102692" r="0.350562" fill="black" />
    <circle cx="513.452209" cy="694.159424" r="0.642976" fill="black" />
    <circle cx="594.261780" cy="670.628845" r="0.219143" fill="black" />
    <circle cx="755.034058" cy="536.871582" r="0.493829" fill="black" />
    <circle cx="414.224792" cy="713.305237" r="0.758960" fill="black" />
    <circle cx="748.129517" cy="509.306213" r="0.748706" fill="black" />
    <circle cx="299.697540" cy="180.254822" r="0.269385" fill="black" />
    <circle cx="515.059937" cy="66.947205" r="0.373258" fill="black" />
    <circle cx="412.196014" cy="739.176208" r="0.703978" fill="black" />
    <circle cx="274.689209" cy="785.604370" r="0.234101" fill="black" />
    <circle cx="454.299774" cy="306.657898" r="0.911193" fill="black" />
    <circle cx="495.967834" cy="115.590820" r="0.686380" fill="black" />
    <circle cx="595.289795" cy="151.055969" r="0.528814" fill="black" />
    <circle cx="568.239624" cy="535.201538" r="0.670464" fill="black" />
    <circle cx="655.445374" cy="515.954285" r="1.162370" fill="black" />
    <circle cx="431.744141" cy="696.346924" r="0.554771" fill="black" />
    <circle cx="576.675598" cy="237.335510" r="0.705248" fill="black" />
    <circle cx="699.759644" cy="461.563934" r="0.884004" fill="black" />
    <circle cx="514.438110" cy="709.709229" r="0.635794" fill="black" />
    <circle cx="356.252808" cy="545.336304" r="0.563253" fill="black" />
    <circle cx="326.196869" cy="287.391479" r="0.665537" fill="black" />
    <circle cx="508.370605" cy="652.097778" r="0.588273" fill="black" />
    <circle cx="370.456940" cy="518.563965" r="0.684311" fill="black" />
    <circle cx="850.396118" cy="803.906555" r="0.258600" fill="black" />
    <circle cx="732.055847" cy="436.004303" r="0.524282" fill="black" />
    <circle cx="516.397644" cy="635.379761" r="0.667508" fill="black" />
    <circle cx="664.806396" cy="574.495789" r="1.014828" fill="black" />
    <circle cx="497.278748" cy="513.939636" r="0.371539" fill="black" />
    <circle cx="552.482422" cy="323.790558" r="0.227713" fill="black" />
    <circle cx="544.365295" cy="157.516541" r="0.639568" fill="black" />
    <circle cx="533.018616" cy="715.287598" r="0.447595" fill="black" />
    <circle cx="580.443176" cy="232.513367" r="0.788993" fill="black" />
    <circle cx="406.804871" cy="136.434875" r="0.588991" fill="black" />
    <circle cx="671.378784" cy="602.984985" r="0.526862" fill="black" />
    <circle cx="596.775146" cy="287.883118" r="0.735223" fill="black" />
    <circle cx="163.266129" cy="189.062622" r="0.363534" fill="black" />
    <circle cx="541.669312" cy="130.522888" r="0.822662" fill="black" />
    <circle cx="503.443848" cy="450.943054" r="0.319906" fill="black" />
    <circle cx="619.851135" cy="315.698242" r="0.701519" fill="black" />
    <circle cx="478.542084" cy="733.564026" r="0.360915" fill="black" />
    <circle cx="396.366638" cy="471.109314" r="0.903853" fill="black" />
    <circle cx="404.683228" cy="632.797180" r="0.518075" fill="black" />
    <circle cx="652.762024" cy="459.419708" r="1.090981" fill="black" />
    <circle cx="446.933563" cy="122.124756" r="0.634265" fill="black" />
    <circle cx="205.390747" cy="643.352661" r="0.030653" fill="black" />
    <circle cx="330.352203" cy="764.847534" r="0.439095" fill="black" />
    <circle cx="422.962982" cy="750.732666" r="0.576064" fill="black" />
    <circle cx="853.550964" cy="821.577698" r="0.268181" fill="black" />
    <circle cx="401.901733" cy="223.605042" r="0.205293" fill="black" />
    <circle cx="358.663666" cy="773.331116" r="0.502523" fill="black" />
    <circle cx="290.170166" cy="284.560303" r="0.678771" fill="black" />
    <circle cx="647.238464" cy="473.160645" r="1.135797" fill="black" />
    <circle cx="674.257935" cy="322.493317" r="0.729978" fill="black" />
    <circle cx="395.675232" cy="819.012817" r="0.555717" fill="black" />
    <circle cx="354.869812" cy="648.982178" r="0.849710" fill="black" />
    <circle cx="480.145447" cy="684.325256" r="0.602233" fill="black" />
    <circle cx="705.354431" cy="664.424561" r="0.625791" fill="black" />
    <circle cx="400.085083" cy="150.504761" r="0.229327" fill="black" />
    <circle cx="644.348450" cy="175.086609" r="0.614933" fill="black" />
    <circle cx="514.270508" cy="101.221069" r="0.702821" fill="black" />
    <circle cx="316.286316" cy="302.804443" r="0.741898" fill="black" />
    <circle cx="327.445068" cy="117.567261" r="0.326100" fill="black" />
    <circle cx="683.128784" cy="205.645508" r="0.672411" fill="black" />
    <circle cx="427.081940" cy="734.343018" r="0.707215" fill="black" />
    <circle cx="356.311981" cy="481.535889" r="0.881310" fill="black" />
    <circle cx="352.796051" cy="464.503357" r="0.718322" fill="black" />
    <circle cx="421.530670" cy="825.839478" r="0.527984" fill="black" />
    <circle cx="781.678650" cy="789.406616" r="0.249452" fill="black" />
    <circle cx="629.288391" cy="540.969360" r="0.964947" fill="black" />
    <circle cx="363.111206" cy="688.399170" r="0.764038" fill="black" />
    <circle cx="704.261536" cy="262.639893" r="0.428088" fill="black" />
    <circle cx="774.568909" cy="817.168640" r="0.208284" fill="black" />
    <circle cx="437.361572" cy="722.349243" r="0.708250" fill="black" />
    <circle cx="573.480652" cy="414.526764" r="0.330075" fill="black" />
    <circle cx="395.701569" cy="663.953247" r="0.778785" fill="black" />
    <circle cx="672.579590" cy="501.142883" r="1.006442" fill="black" />
    <circle cx="617.434814" cy="324.244232" r="0.652123" fill="black" />
    <circle cx="369.427216" cy="676.543518" r="0.832959" fill="black" />
    <circle cx="392.192505" cy="716.457397" r="0.699161" fill="black" />
    <circle cx="595.616516" cy="330.388580" r="0.567571" fill="black" />
    <circle cx="343.970367" cy="301.760742" r="0.561730" fill="black" />
    <circle cx="272.218994" cy="804.103149" r="0.242336" fill="black" />
    <circle cx="652.912170" cy="424.376404" r="0.559279" fill="black" />
    <circle cx="682.962158" cy="197.132141" r="0.642474" fill="black" />
    <circle cx="504.625824" cy="701.959290" r="0.640511" fill="black" />
    <circle cx="684.857239" cy="397.273499" r="0.889383" fill="black" />
    <circle cx="513.634033" cy="148.830566" r="0.400323" fill="black" />
    <circle cx="694.721985" cy="288.637573" r="0.581578" fill="black" />
    <circle cx="492.414185" cy="103.910461" r="0.686327" fill="black" />
    <circle cx="698.902466" cy="250.711304" r="0.555578" fill="black" />
    <circle cx="640.106506" cy="469.419800" r="1.140849" fill="black" />
    <circle cx="684.600525" cy="353.322754" r="0.413117" fill="black" />
    <circle cx="519.816467" cy="353.033142" r="0.197239" fill="black" />
    <circle cx="726.127075" cy="484.941467" r="0.720959" fill="black" />
    <circle cx="177.194290" cy="821.798401" r="0.268011" fill="black" />
    <circle cx="365.206512" cy="726.460327" r="0.385824" fill="black" />
    <circle cx="293.382935" cy="56.793518" r="0.060679" fill="black" />
    <circle cx="413.971130" cy="774.764526" r="0.321941" fill="black" />
    <circle cx="391.401733" cy="657.992676" r="0.810978" fill="black" />
    <circle cx="351.369141" cy="576.617004" r="0.743737" fill="black" />
    <circle cx="606.582520" cy="215.471741" r="0.916520" fill="black" />
    <circle cx="806.911133" cy="620.848633" r="0.246673" fill="black" />
    <circle cx="627.872864" cy="475.136353" r="1.076792" fill="black" />
    <circle cx="616.895630" cy="442.685791" r="0.565338" fill="black" />
    <circle cx="696.102051" cy="133.058044" r="0.184587" fill="black" />
    <circle cx="599.575684" cy="484.680328" r="0.643068" fill="black" />
    <circle cx="643.674316" cy="303.315979" r="0.574902" fill="black" />
    <circle cx="469.476135" cy="574.969238" r="0.783410" fill="black" />
    <circle cx="362.104584" cy="783.124817" r="0.507059" fill="black" />
    <circle cx="529.714722" cy="502.437775" r="0.378390" fill="black" />
    <circle cx="567.774292" cy="59.983398" r="0.061452" fill="black" />
    <circle cx="489.028442" cy="755.766357" r="0.194990" fill="black" />
    <circle cx="472.790131" cy="702.395020" r="0.584283" fill="black" />
    <circle cx="652.685181" cy="184.888184" r="0.683285" fill="black" />
    <circle cx="817.576721" cy="821.835754" r="0.292340" fill="black" />
    <circle cx="540.624023" cy="144.354919" r="0.622781" fill="black" />
    <circle cx="618.191406" cy="163.341248" r="0.748239" fill="black" />
    <circle cx="531.665771" cy="96.600586" r="0.483287" fill="black" />
    <circle cx="641.682678" cy="167.799255" r="0.654213" fill="black" />
    <circle cx="340.721924" cy="645.216736" r="0.656105" fill="black" />
    <circle cx="382.194885" cy="131.892395" r="0.681390" fill="black" />
    <circle cx="442.068604" cy="301.718567" r="0.901057" fill="black" />
    <circle cx="925.113159" cy="827.537292" r="0.493150" fill="black" />
    <circle cx="415.657562" cy="480.589355" r="0.965376" fill="black" />
    <circle cx="358.154633" cy="735.737915" r="0.521730" fill="black" />
    <circle cx="291.037506" cy="261.829468" r="0.326876" fill="black" />
    <circle cx="811.728394" cy="806.874878" r="0.308726" fill="black" />
    <circle cx="645.102417" cy="356.341125" r="0.446957" fill="black" />
    <circle cx="345.197998" cy="155.696472" r="0.380810" fill="black" />
    <circle cx="675.407654" cy="409.521545" r="1.009321" fill="black" />
    <circle cx="349.134644" cy="123.121521" r="0.473815" fill="black" />
    <circle cx="775.396118" cy="385.157928" r="0.503883" fill="black" />
    <circle cx="606.148621" cy="462.874634" r="0.630342" fill="black" />
    <circle cx="530.070618" cy="409.258087" r="0.334139" fill="black" />
    <circle cx="353.735657" cy="133.314636" r="0.506270" fill="black" />
    <circle cx="60.035282" cy="820.512817" r="0.192861" fill="black" />
    <circle cx="620.839722" cy="431.760559" r="0.570648" fill="black" />
    <circle cx="627.251648" cy="548.947571" r="0.944066" fill="black" />
    <circle cx="481.165375" cy="649.075806" r="0.621197" fill="black" />
    <circle cx="224.417648" cy="170.005981" r="0.487817" fill="black" />
    <circle cx="496.375336" cy="86.971497" r="0.606995" fill="black" />
    <circle cx="421.445221" cy="111.541870" r="0.641789" fill="black" />
    <circle cx="387.348083" cy="804.250122" r="0.550077" fill="black" />
    <circle cx="655.554321" cy="523.911499" r="1.159892" fill="black" />
    <circle cx="340.875671" cy="354.683136" r="0.386836" fill="black" />
    <circle cx="599.924072" cy="180.578979" r="0.755046" fill="black" />
    <circle cx="344.316742" cy="457.301941" r="0.600465" fill="black" />
    <circle cx="367.426147" cy="656.989624" r="0.897958" fill="black" />
    <circle cx="455.791138" cy="319.193054" r="0.709320" fill="black" />
    <circle cx="315.948212" cy="708.630127" r="0.536778" fill="black" />
    <circle cx="642.114441" cy="384.760529" r="0.234583" fill="black" />
    <circle cx="520.307434" cy="82.204285" r="0.427743" fill="black" />
    <circle cx="346.933197" cy="627.948975" r="0.787734" fill="black" />
    <circle cx="607.715820" cy="145.646057" r="0.561853" fill="black" />
    <circle cx="552.526001" cy="244.505615" r="0.336165" fill="black" />
    <circle cx="675.366150" cy="549.895996" r="1.082433" fill="black" />
    <circle cx="671.531433" cy="168.534851" r="0.509262" fill="black" />
    <circle cx="397.398346" cy="101.571533" r="0.509189" fill="black" />
    <circle cx="415.839478" cy="487.979218" r="0.477462" fill="black" />
    <circle cx="409.255127" cy="279.542725" r="0.809685" fill="black" />
    <circle cx="441.941162" cy="576.606873" r="0.727753" fill="black" />
    <circle cx="336.662445" cy="756.345154" r="0.476312" fill="black" />
    <circle cx="420.973724" cy="123.875671" r="0.743948" fill="black" />
    <circle cx="589.946716" cy="201.004761" r="0.916430" fill="black" />
    <circle cx="504.300385" cy="94.722717" r="0.616022" fill="black" />
    <circle cx="360.622345" cy="237.582153" r="0.259971" fill="black" />
    <circle cx="908.809204" cy="718.768127" r="0.136568" fill="black" />
    <circle cx="467.254852" cy="81.519226" r="0.640831" fill="black" />
    <circle cx="321.970764" cy="255.351746" r="0.338446" fill="black" />
    <circle cx="587.348633" cy="652.483765" r="0.381282" fill="black" />
    <circle cx="536.731567" cy="548.543823" r="0.752022" fill="black" />
    <circle cx="427.204956" cy="531.486145" r="0.301055" fill="black" />
    <circle cx="564.074341" cy="585.405273" r="0.554735" fill="black" />
    <circle cx="387.094299" cy="699.904297" r="0.853870" fill="black" />
    <circle cx="690.085510" cy="242.646301" r="0.734755" fill="black" />
    <circle cx="749.711060" cy="468.832001" r="0.655921" fill="black" />
    <circle cx="695.614563" cy="416.425171" r="0.513469" fill="black" />
    <circle cx="462.102142" cy="336.249725" r="0.339833" fill="black" />
    <circle cx="675.153259" cy="494.059601" r="1.012914" fill="black" />
    <circle cx="716.772766" cy="573.096680" r="0.579001" fill="black" />
    <circle cx="164.042526" cy="774.991821" r="0.195163" fill="black" />
    <circle cx="653.279968" cy="210.862732" r="0.831302" fill="black" />
    <circle cx="669.763245" cy="233.624268" r="0.938635" fill="black" />
    <circle cx="627.150635" cy="239.747131" r="0.903227" fill="black" />
    <circle cx="372.596069" cy="437.718689" r="0.420638" fill="black" />
    <circle cx="930.619385" cy="614.842651" r="0.546513" fill="black" />
    <circle cx="570.300049" cy="170.389221" r="0.896895" fill="black" />
    <circle cx="558.851440" cy="127.182495" r="0.570137" fill="black" />
    <circle cx="545.865601" cy="111.096863" r="0.506930" fill="black" />
    <circle cx="324.224274" cy="131.729431" r="0.357778" fill="black" />
    <circle cx="577.099854" cy="195.666626" r="0.883361" fill="black" />
    <circle cx="357.721863" cy="260.192810" r="0.280286" fill="black" />
    <circle cx="699.909119" cy="490.057770" r="0.978943" fill="black" />
    <circle cx="418.502838" cy="501.647888" r="0.489018" fill="black" />
    <circle cx="374.777679" cy="2.985657" r="0.396781" fill="black" />
    <circle cx="316.333221" cy="796.133850" r="0.214637" fill="black" />
    <circle cx="208.029999" cy="768.412842" r="0.234826" fill="black" />
    <circle cx="607.020935" cy="210.454956" r="0.942198" fill="black" />
    <circle cx="749.266174" cy="392.892151" r="0.696082" fill="black" />
    <circle cx="622.220581" cy="158.658142" r="0.720957" fill="black" />
    <circle cx="663.692810" cy="243.188232" r="0.923025" fill="black" />
    <circle cx="492.909363" cy="120.577637" r="0.740716" fill="black" />
    <circle cx="511.536438" cy="644.162842" r="0.642789" fill="black" />
    <circle cx="475.371552" cy="313.019104" r="0.824642" fill="black" />
    <circle cx="648.418335" cy="231.842285" r="0.967998" fill="black" />
    <circle cx="607.114258" cy="205.053894" r="0.933352" fill="black" />
    <circle cx="681.491638" cy="625.893066" r="0.664937" fill="black" />
    <circle cx="397.606110" cy="724.133179" r="0.682141" fill="black" />
    <circle cx="421.992828" cy="104.579956" r="0.602187" fill="black" />
    <circle cx="690.670654" cy="555.184082" r="1.020661" fill="black" />
    <circle cx="368.428680" cy="614.608887" r="0.696831" fill="black" />
    <circle cx="582.845337" cy="207.188232" r="0.867376" fill="black" />
    <circle cx="385.030823" cy="684.110413" r="0.898400" fill="black" />
    <circle cx="456.307678" cy="668.987000" r="0.536754" fill="black" />
    <circle cx="749.204590" cy="443.355042" r="0.644222" fill="black" />
    <circle cx="709.563599" cy="384.954071" r="0.604320" fill="black" />
    <circle cx="372.055389" cy="20.827271" r="0.121559" fill="black" />
    <circle cx="339.855408" cy="703.908264" r="0.525501" fill="black" />
    <circle cx="465.320953" cy="622.463257" r="0.601823" fill="black" />
    <circle cx="676.110229" cy="329.919037" r="0.653788" fill="black" />
    <circle cx="525.380005" cy="662.996826" r="0.307611" fill="black" />
    <circle cx="564.572754" cy="598.974426" r="0.492467" fill="black" />
    <circle cx="584.252747" cy="272.205139" r="0.664094" fill="black" />
    <circle cx="583.802795" cy="435.481171" r="0.327138" fill="black" />
    <circle cx="444.034698" cy="78.137390" r="0.541516" fill="black" />
</svg>